<?xml version="1.0" encoding="UTF-8" standalone="no"?>
<svg
   version="1.1"
   x="0px"
   y="0px"
   viewBox="0 0 90 79.603439"
   xml:space="preserve"
   id="svg3"
   sodipodi:docname="novideo.svg"
   width="90"
   height="79.603439"
   inkscape:version="1.3 (0e150ed6c4, 2023-07-21)"
   xmlns:inkscape="http://www.inkscape.org/namespaces/inkscape"
   xmlns:sodipodi="http://sodipodi.sourceforge.net/DTD/sodipodi-0.dtd"
   xmlns="http://www.w3.org/2000/svg"
   xmlns:svg="http://www.w3.org/2000/svg"><defs
     id="defs3" /><sodipodi:namedview
     id="namedview3"
     pagecolor="#505050"
     bordercolor="#ffffff"
     borderopacity="1"
     inkscape:showpageshadow="0"
     inkscape:pageopacity="0"
     inkscape:pagecheckerboard="1"
     inkscape:deskcolor="#d1d1d1"
     inkscape:zoom="11.02458"
     inkscape:cx="49.026809"
     inkscape:cy="41.407471"
     inkscape:window-width="2560"
     inkscape:window-height="1440"
     inkscape:window-x="0"
     inkscape:window-y="0"
     inkscape:window-maximized="1"
     inkscape:current-layer="svg3" /><g
     id="g2"
     transform="translate(0,-5.198561)"><path
       d="M 87.447,27.111 C 85.848,25.982 83.793,25.7 81.948,26.354 l -14.94,5.307 V 28.315 L 89.32,8.7 C 90.15,7.971 90.231,6.707 89.502,5.878 88.773,5.049 87.511,4.967 86.68,5.696 L 0.68,81.3 c -0.83,0.729 -0.911,1.993 -0.182,2.822 0.395,0.45 0.948,0.68 1.503,0.68 0.469,0 0.939,-0.164 1.319,-0.498 L 19.329,70.23 h 39.412 c 4.559,0 8.267,-3.708 8.267,-8.267 V 56.88 l 14.94,5.307 c 0.655,0.232 1.337,0.347 2.016,0.347 1.231,0 2.452,-0.376 3.483,-1.104 C 89.046,60.301 90,58.459 90,56.502 V 32.039 c 0,-1.957 -0.954,-3.799 -2.553,-4.928 z"
       id="path1" /><path
       d="M 5.026,69.567 61.809,19.648 C 61.558,19.061 61.033,18.604 60.36,18.47 59.83,18.365 59.285,18.311 58.741,18.311 H 8.267 C 3.708,18.311 0,22.019 0,26.578 v 35.386 c 0,3.408 2.074,6.34 5.026,7.603 z"
       id="path2" /></g><path
     style="fill:#2e3440;stroke-width:0.128278;fill-opacity:1"
     d="M 1.157061,79.315007 C 0.2620546,78.850911 -0.13437817,77.68375 0.28807345,76.75657 0.44273715,76.41712 86.248362,0.8598809 87.036773,0.36889476 87.582046,0.0293232 88.488464,0.05222421 89.038185,0.41946122 89.870046,0.97518091 90.160895,2.1097619 89.675539,2.9057391 89.539945,3.1281117 84.388187,7.7418549 78.227188,13.158501 l -11.201818,9.848449 -0.03555,1.766863 -0.03555,1.766864 0.86936,-0.299492 c 0.478148,-0.16472 3.986522,-1.411195 7.796385,-2.769943 6.545988,-2.33456 6.988265,-2.473807 8.040366,-2.531429 1.827389,-0.100082 3.190255,0.426855 4.527572,1.750536 0.78993,0.781875 1.265308,1.60044 1.538445,2.649084 0.296135,1.136939 0.296135,26.305631 0,27.44257 -0.44669,1.714958 -1.558676,3.052795 -3.219809,3.873771 -0.992167,0.490356 -1.001556,0.492146 -2.541837,0.484996 l -1.545991,-0.0072 -7.696694,-2.762572 -7.696693,-2.762571 -0.07686,3.347001 c -0.08491,3.697445 -0.140867,4.016905 -0.99063,5.656008 -0.664433,1.281616 -2.215259,2.807246 -3.486382,3.429734 -1.899255,0.930095 -0.256406,0.867587 -22.801977,0.867587 H 19.358728 l -7.936259,6.978931 c -4.3649424,3.838413 -8.1085334,7.106301 -8.319091,7.261973 -0.5239665,0.387385 -1.3781498,0.459941 -1.946317,0.165323 z"
     id="path3" /><path
     style="fill:#81a1c1;fill-opacity:1;stroke-width:0.128278"
     d="M 4.1727244,63.846862 C 3.0491789,63.240662 1.7062509,61.839781 1.0648556,60.604873 -0.01886534,58.518337 0.06413911,60.305317 0.06413911,39.060718 c 0,-17.853752 0.01242974,-18.900709 0.23365095,-19.680449 0.82384114,-2.903798 3.01872714,-5.115197 5.85789894,-5.901972 0.9551785,-0.264693 1.052486,-0.26564 27.297614,-0.26564 18.609134,0 26.502236,0.0411 26.895172,0.140041 0.339452,0.08548 0.722035,0.311188 0.98188,0.579278 l 0.425724,0.439237 -0.315753,0.302295 c -0.173665,0.166261 -2.742079,2.431064 -5.707588,5.032893 C 52.767231,22.308231 40.163957,33.384407 27.725463,44.320125 15.286971,55.255843 5.0714774,64.21605 5.0243668,64.231696 4.9772564,64.247342 4.5940173,64.074167 4.1727244,63.846862 Z"
     id="path4" /><path
     style="fill:#81a1c1;fill-opacity:1;stroke-width:0.181413"
     d="M 1.360596,79.287306 C 0.78097972,79.050074 0.3557401,78.467234 0.2394553,77.750656 0.14070451,77.142125 0.19910777,77.021465 0.93086441,76.322206 3.8399758,73.542291 85.868891,1.3355481 87.073157,0.49462563 87.78596,-0.00311618 88.481272,0.09695625 89.182532,0.79821632 89.824576,1.4402601 89.964751,2.073137 89.611223,2.7337104 89.427073,3.0777975 81.170147,10.47334 71.700249,18.776165 l -4.758926,4.172434 v 1.849771 1.84977 l 0.952417,-0.333172 c 0.52383,-0.183245 2.83004,-1.003284 5.124912,-1.822308 9.8176,-3.50384 9.270036,-3.338215 11.06618,-3.347251 1.367857,-0.0069 1.76059,0.05982 2.420992,0.411161 1.075965,0.572432 2.334212,1.870723 2.809132,2.898536 0.393029,0.850584 0.393673,0.874544 0.393673,14.639352 v 13.787373 l -0.426982,0.859211 c -0.56981,1.146623 -1.618043,2.196584 -2.781637,2.786221 -0.829203,0.420188 -1.166825,0.48199 -2.591364,0.474342 l -1.637942,-0.0088 -7.600924,-2.735789 c -4.180509,-1.504683 -7.62962,-2.735788 -7.664691,-2.735788 -0.03507,0 -0.06899,0.714313 -0.07538,1.587362 -0.0064,0.873049 -0.07567,2.536617 -0.153952,3.696819 -0.121968,1.807623 -0.223399,2.282692 -0.708883,3.320148 -0.756152,1.61586 -2.329524,3.187124 -3.968977,3.963658 l -1.233899,0.584441 -20.752822,0.05053 -20.752821,0.05053 -3.556494,3.137747 C 7.0730044,75.613566 2.9638717,79.15064 2.5738258,79.298936 2.0752723,79.488485 1.8467734,79.486295 1.360596,79.287306 Z"
     id="path5" /><path
     style="fill:#81a1c1;fill-opacity:1;stroke-width:0.0320696"
     d=""
     id="path12" /></svg>
